<svg xmlns="http://www.w3.org/2000/svg" viewBox="0 0 50.43 77.14"><defs><style>.cls-1{fill:#fbf9f6;}</style></defs><g id="Layer_2" data-name="Layer 2"><g id="Layer_1-2" data-name="Layer 1"><path class="cls-1" d="M22.35,21.94H13.26v3.11h8.81v1.88H13.26v5H10.75V20.05h11.6Z"/><path class="cls-1" d="M34.73,31.93l-1.27-2.51H25.83l-1.29,2.51h-2.7l6.33-11.88H31.1l6.34,11.88Zm-8-4.28h5.83l-2.25-4.4c-.16-.36-.47-1.09-.65-1.56h0c-.19.47-.51,1.2-.66,1.56Z"/><path class="cls-1" d="M10.75,46.93V35.05h2.83L21.06,43a5.21,5.21,0,0,1,.87,1.22H22V35.05h2.28V46.93H21.68L14,38.87a5.18,5.18,0,0,1-.86-1.19H13v9.25Z"/><path class="cls-1" d="M26.41,41c0-3.77,3.18-6.36,7.85-6.36,3.82,0,6.46,1.64,7.25,4.47l-2.63.38c-.55-1.86-2.17-2.88-4.69-2.88C31,36.62,29,38.3,29,41s2,4.37,5.2,4.37c2.45,0,4-.92,4.69-2.69l2.55.5c-1,2.68-3.57,4.17-7.35,4.17C29.41,47.34,26.41,44.84,26.41,41Z"/><path class="cls-1" d="M15,61.93V57.77L8.93,50.05h2.94L16,55.36a2.06,2.06,0,0,1,.35.6h0a1.69,1.69,0,0,1,.35-.6l4.17-5.31h2.85l-6.16,7.72v4.16Z"/><path class="cls-1" d="M25.22,77.14A25.25,25.25,0,0,1,0,51.92V25.22a25.22,25.22,0,1,1,50.43,0v26.7A25.25,25.25,0,0,1,25.22,77.14Zm0-75.64A23.75,23.75,0,0,0,1.5,25.22v26.7a23.72,23.72,0,1,0,47.43,0V25.22A23.74,23.74,0,0,0,25.22,1.5Z"/></g></g></svg>