<svg xmlns="http://www.w3.org/2000/svg" viewBox="0 0 18.23 18.22"><defs><style>.cls-1{fill:#fbf9f6;}</style></defs><g id="Layer_2" data-name="Layer 2"><g id="Layer_1-2" data-name="Layer 1"><path class="cls-1" d="M9.16,0h4.05a5,5,0,0,1,5,5c0,2.73,0,5.47,0,8.2a5,5,0,0,1-5,5c-2.73,0-5.47,0-8.2,0a5,5,0,0,1-5-5Q0,9.1,0,5A5,5,0,0,1,5,0ZM9.11,4.71a4.45,4.45,0,0,0-4.4,4.41,4.45,4.45,0,0,0,4.41,4.39,4.46,4.46,0,0,0,4.4-4.4A4.45,4.45,0,0,0,9.11,4.71Zm4.77-1.46a1.14,1.14,0,0,0-1.12,1.08,1.11,1.11,0,1,0,2.21,0A1.15,1.15,0,0,0,13.88,3.25Z"/><path class="cls-1" d="M12,9.09A2.91,2.91,0,1,1,9.11,6.21,2.87,2.87,0,0,1,12,9.09Z"/></g></g></svg>