<svg xmlns="http://www.w3.org/2000/svg" viewBox="0 0 23.5 18.22"><defs><style>.cls-1{fill:#fbf9f6;}</style></defs><g id="Layer_2" data-name="Layer 2"><g id="Layer_1-2" data-name="Layer 1"><path class="cls-1" d="M17.44,18.22a14.45,14.45,0,0,1-1.28-2.11,13.26,13.26,0,0,0,2-1L18,15c-.08-.07-.17-.13-.24-.2a.14.14,0,0,0-.18,0,14.35,14.35,0,0,1-2.19.8A10.44,10.44,0,0,1,13,16c-.6,0-1.21.07-1.82.06a11.72,11.72,0,0,1-2.12-.27,14.4,14.4,0,0,1-3-1,.35.35,0,0,0-.47.07,2.76,2.76,0,0,1-.25.21,14.25,14.25,0,0,0,2,1c-.14.25-.27.5-.41.73-.26.43-.54.85-.81,1.28a.12.12,0,0,1-.17.06A19.28,19.28,0,0,1,3,17,18.38,18.38,0,0,1,.17,15.21a.17.17,0,0,1-.08-.13C.06,14.71,0,14.34,0,14c0-.62,0-1.25,0-1.87s.09-1.18.16-1.77A19.63,19.63,0,0,1,1.74,4.85,23,23,0,0,1,3.52,1.62a.56.56,0,0,1,.18-.16A16.32,16.32,0,0,1,6.11.55C6.84.35,7.58.19,8.31,0A.14.14,0,0,1,8.5.1L9,1.17c0,.08.07.11.16.1a18,18,0,0,1,3-.19c.5,0,1,.07,1.51.11l.65.08c.07,0,.09,0,.12-.08L15,.11a.16.16,0,0,1,.21-.1A18.62,18.62,0,0,1,18.55,1c.41.16.81.32,1.2.49a.56.56,0,0,1,.23.2,21.44,21.44,0,0,1,2.37,4.71,19.61,19.61,0,0,1,.84,3.18,20.81,20.81,0,0,1,.28,2.36,24.1,24.1,0,0,1,0,2.55c0,.2,0,.39,0,.59a.32.32,0,0,1-.13.22c-.6.44-1.22.84-1.86,1.22a19.43,19.43,0,0,1-3.93,1.74Zm-7.48-8a2.68,2.68,0,0,0-.48-1.7,2,2,0,0,0-3.11-.2,2.41,2.41,0,0,0-.62,1.44,2.48,2.48,0,0,0,.82,2.22,1.9,1.9,0,0,0,2.52,0A2.43,2.43,0,0,0,10,10.17Zm3.57-.25A2.72,2.72,0,0,0,14,11.53a2,2,0,0,0,3.17.15,2.41,2.41,0,0,0,.57-1.42,2.54,2.54,0,0,0-.57-1.93,2,2,0,0,0-3,0A2.57,2.57,0,0,0,13.53,9.92Z"/></g></g></svg>