<svg xmlns="http://www.w3.org/2000/svg" viewBox="0 0 21.77 17.85"><defs><style>.cls-1{fill:#fbf9f6;}</style></defs><g id="Layer_2" data-name="Layer 2"><g id="Layer_1-2" data-name="Layer 1"><path class="cls-1" d="M0,15.87A9.36,9.36,0,0,0,6.51,14a4.62,4.62,0,0,1-4.18-3.13,4.73,4.73,0,0,0,1.94-.09A4.63,4.63,0,0,1,.74,6.29a4.75,4.75,0,0,0,2,.51A4.64,4.64,0,0,1,1.37.8a13,13,0,0,0,9.29,4.73c0-.23,0-.44-.06-.65A4.47,4.47,0,0,1,14,.14a4.3,4.3,0,0,1,4,1,.83.83,0,0,0,.93.19L21.14.47a4.6,4.6,0,0,1-1.68,2.27l0,.07,2.24-.59.05,0c-.4.44-.78.9-1.19,1.33a7.43,7.43,0,0,1-.73.64.59.59,0,0,0-.25.53A12.58,12.58,0,0,1,19,9a12.73,12.73,0,0,1-5.64,7.14,12.12,12.12,0,0,1-4.59,1.58,12.94,12.94,0,0,1-6.11-.56A11.92,11.92,0,0,1,0,15.87Z"/></g></g></svg>