<svg width="18" height="20" viewBox="0 0 18 20" fill="none" xmlns="http://www.w3.org/2000/svg">
<path d="M8.21921 19.6252C8.60021 20.1002 9.40021 20.1002 9.78121 19.6252L17.7812 9.6252C17.8986 9.47799 17.972 9.30066 17.9932 9.11359C18.0143 8.92651 17.9823 8.73727 17.9007 8.56758C17.8192 8.39789 17.6914 8.25465 17.5321 8.15428C17.3728 8.05392 17.1885 8.00052 17.0002 8.0002H13.0002L13.0002 1.00019C13.0002 0.734978 12.8949 0.480623 12.7073 0.293087C12.5198 0.105551 12.2654 0.00019455 12.0002 0.00019455H6.00021C5.735 0.00019455 5.48064 0.105551 5.29311 0.293087C5.10557 0.480623 5.00021 0.734978 5.00021 1.00019V8.0002H1.00021C0.811947 8.00052 0.627588 8.05392 0.468302 8.15428C0.309015 8.25465 0.181263 8.39789 0.0997086 8.56758C0.0181541 8.73727 -0.0138931 8.92651 0.00724602 9.11359C0.0283852 9.30066 0.101852 9.47799 0.219213 9.6252L8.21921 19.6252ZM6.00021 10.0002H7.00021V2.00019H11.0002L11.0002 10.0002H14.9192L9.00021 17.3992L3.08121 10.0002H6.00021Z" fill="#D75047"/>
</svg>
