<svg width="18" height="20" viewBox="0 0 18 20" fill="none" xmlns="http://www.w3.org/2000/svg">
<path d="M9.78079 0.374805C9.39979 -0.100195 8.59979 -0.100195 8.21879 0.374805L0.218787 10.3748C0.101425 10.522 0.0279573 10.6993 0.00681859 10.8864C-0.0143201 11.0735 0.0177274 11.2627 0.0992811 11.4324C0.180835 11.6021 0.308589 11.7454 0.467874 11.8457C0.62716 11.9461 0.81152 11.9995 0.999786 11.9998H4.99979V18.9998C4.99979 19.265 5.10514 19.5194 5.29268 19.7069C5.48022 19.8944 5.73457 19.9998 5.99979 19.9998H11.9998C12.265 19.9998 12.5194 19.8944 12.7069 19.7069C12.8944 19.5194 12.9998 19.265 12.9998 18.9998V11.9998H16.9998C17.1881 11.9995 17.3724 11.9461 17.5317 11.8457C17.691 11.7454 17.8187 11.6021 17.9003 11.4324C17.9818 11.2627 18.0139 11.0735 17.9928 10.8864C17.9716 10.6993 17.8981 10.522 17.7808 10.3748L9.78079 0.374805ZM11.9998 9.9998H10.9998V17.9998H6.99979V9.9998H3.08079L8.99979 2.6008L14.9188 9.9998H11.9998Z" fill="#47D7AC"/>
</svg>
