<svg xmlns="http://www.w3.org/2000/svg" viewBox="0 0 35.67 31.66"><defs><style>.cls-1{fill:#ed1c24;}.cls-2{fill:none;stroke:#ed1c24;stroke-miterlimit:10;}</style></defs><g id="Layer_2" data-name="Layer 2"><g id="Layer_1-2" data-name="Layer 1"><path class="cls-1" d="M17.84,8.63h-.59a.91.91,0,0,0-.88.75,5.73,5.73,0,0,0-.29,1.75c.08,2.93.23,5.85.35,8.77.05,1.25.56,2,1.34,2s1.42-.71,1.48-2q.2-4.44.38-8.88c.06-1.48-.49-2.43-1.4-2.43Z"/><path class="cls-2" d="M17.84,31.15H3.05a2.47,2.47,0,0,1-1.81-.57,2.24,2.24,0,0,1-.38-2.9c.83-1.46,1.68-2.91,2.52-4.36q4.05-7,8.11-14c1.43-2.49,2.86-5,4.31-7.47a2.25,2.25,0,0,1,4.1,0Q27.28,14.62,34.67,27.4a2.46,2.46,0,0,1,.17,2.7,2.3,2.3,0,0,1-2.15,1.06H17.84Z"/><path class="cls-1" d="M17.84,26.55a1.64,1.64,0,0,0,1.64-1.62,1.64,1.64,0,1,0-3.28,0A1.64,1.64,0,0,0,17.84,26.55Z"/></g></g></svg>